<?xml version="1.0" encoding="UTF-8" standalone="no"?>
<!DOCTYPE svg PUBLIC "-//W3C//DTD SVG 1.1//EN" "http://www.w3.org/Graphics/SVG/1.1/DTD/svg11.dtd">
<!-- Created with Vectornator (http://vectornator.io/) -->
<svg height="100%" stroke-miterlimit="10" style="fill-rule:nonzero;clip-rule:evenodd;stroke-linecap:round;stroke-linejoin:round;" version="1.1" viewBox="327.759 111.168 168.05 153.469" width="100%" xml:space="preserve" xmlns="http://www.w3.org/2000/svg" xmlns:vectornator="http://vectornator.io" xmlns:xlink="http://www.w3.org/1999/xlink">
<defs/>
	<g id="Layer-5" vectornator:layerName="Layer 5">
<path d="M384.476 111.168C374.107 111.142 364.527 116.639 359.32 125.605L353.288 136.012C356.405 134.461 359.731 133.359 363.413 132.949L363.632 132.949L409.632 132.887C410.867 130.439 412.638 127.08 412.82 126.355C414.309 120.425 414.125 117.682 412.476 114.637C411.737 113.272 410.369 112.18 408.726 111.23L384.476 111.168ZM415.476 111.262L425.945 130.105C426.701 131.209 427.22 132.31 427.82 133.418L455.851 132.512C461.437 132.517 465.638 133.19 469.632 134.637L464.601 125.887C459.439 116.894 449.876 111.35 439.507 111.324L415.476 111.262ZM417.538 123.199C417.349 124.459 417.079 125.791 416.695 127.324C415.933 130.358 409.075 143.017 397.601 163.137C397.297 163.669 397.003 164.19 396.695 164.73C392.351 172.333 387.692 180.399 383.038 188.387C381.41 191.182 376.931 198.867 376.882 198.949C372.426 207.049 372.017 208.757 373.288 216.699C373.303 216.79 373.318 216.889 373.32 216.98C373.322 217.074 373.346 217.353 373.413 217.793C373.534 218.582 373.745 219.529 374.07 220.637C374.545 222.258 375.202 224.015 376.07 225.918C378.911 230.827 381.541 235.316 383.351 238.355C383.629 235.458 383.987 233.207 384.663 231.199C385.182 229.66 385.216 229.6 387.351 224.824L387.445 224.637L423.82 160.762C427.572 152.589 427.878 151.58 427.726 147.793C427.722 147.705 427.754 147.512 427.757 147.449C427.777 147.039 427.748 146.458 427.695 145.762C427.616 144.74 427.442 143.62 427.163 142.418C426.799 140.843 426.268 139.248 425.57 137.637L417.538 123.199ZM455.913 136.512L430.007 137.355L442.132 159.23L466.101 158.855C474.337 159.138 479.589 159.878 485.32 162.012L473.132 140.762C467.921 137.729 463.21 136.52 455.913 136.512ZM407.663 136.887L363.726 136.949C357.877 137.633 352.956 140.014 348.601 144.074L338.038 162.262C341.25 160.487 343.171 159.834 347.945 159.543L395.445 158.824C400.491 149.944 404.724 142.38 407.663 136.887ZM431.695 148.668C431.743 152.454 431.102 154.454 427.445 162.418L427.382 162.574L391.007 226.449C388.955 231.04 388.901 231.124 388.445 232.48C387.716 234.644 387.102 240.898 387.101 240.918C387.07 241.588 387.188 242.719 387.632 244.262C388.302 246.59 389.611 249.21 391.538 252.012C394.943 256.596 398.374 259.469 402.413 261.262C403.864 261.905 405.796 262.398 407.757 262.949C405.56 260.126 404.143 257.664 403.945 255.543C403.435 250.105 404.208 247.194 407.788 240.918L440.07 183.355C440.92 181.481 441.695 178.792 441.945 175.699C442.32 171.048 441.47 166.327 439.007 161.793L431.695 148.668ZM466.07 162.855L460.163 162.949L484.57 206.293L484.601 206.293C486.006 207.931 488.234 207.256 490.945 203.855C491.493 203.167 491.982 202.328 492.476 201.512C497.068 192.752 496.928 182.233 491.976 173.605L488.663 167.824C481.197 164.246 476.009 163.198 466.07 162.855ZM455.57 163.012L444.007 163.199C445.676 167.425 446.289 171.744 445.945 176.012C445.65 179.662 444.72 182.854 443.663 185.137L443.601 185.293L443.132 186.105L457.195 211.262L474.007 211.168C476.712 211.051 479.483 210.393 482.226 209.387C481.994 209.17 481.727 209.116 481.507 208.855C481.427 208.76 481.349 208.682 481.288 208.574L455.57 163.012ZM364.945 163.293L348.101 163.543C344.461 163.766 342.869 164.232 340.82 165.262C341.368 165.745 341.898 166.253 342.32 166.855L342.445 167.012C342.468 167.053 366.629 209.717 366.851 210.105C367.989 212.101 367.875 211.796 368.945 213.668C368.346 207.659 369.294 204.41 373.382 196.98C373.458 196.851 377.813 189.479 379.507 186.574L364.945 163.293ZM336.913 167.48L333.601 169.887L331.695 173.199C326.488 182.166 326.439 193.238 331.601 202.23L359.007 249.949C364.169 258.942 373.732 264.485 384.101 264.512L400.101 264.543C395.948 262.555 392.335 259.572 388.882 255.105C388.821 255.041 388.717 255.054 388.663 254.98C388.486 254.733 388.394 254.507 388.226 254.262C387.937 253.87 387.638 253.551 387.351 253.137C386.341 251.68 379.952 240.46 376.507 234.574C376.289 234.419 376.028 234.349 375.882 234.105C374.501 231.802 373.378 229.624 372.445 227.574C368.876 221.402 368.339 220.766 363.382 212.074C363.161 211.687 339.238 169.489 339.038 169.137C338.561 168.455 337.759 167.948 336.913 167.48ZM486.538 211.855C482.478 213.72 478.266 214.988 474.101 215.168L426.663 215.48L414.476 237.199L458.07 237.137C465.637 236.293 471.696 232.727 476.913 226.23L481.632 220.324L486.538 211.855ZM472.851 235.449C468.608 238.525 463.918 240.534 458.507 241.137L458.288 241.137L412.226 241.199L411.288 242.887C408.078 248.515 407.489 250.639 407.913 255.168C408.035 256.461 409.242 258.582 411.351 261.168C412.227 262.243 413.265 263.402 414.382 264.574L439.101 264.637C449.47 264.663 459.081 259.166 464.288 250.199L472.851 235.449Z" fill="#ff8a00" fill-rule="nonzero" opacity="1" stroke="none" vectornator:layerName="Curve 23"/>
</g>
</svg>
