<svg width="26" height="27" viewBox="0 0 26 27" fill="none" xmlns="http://www.w3.org/2000/svg">
  <path d="M13.9969 1.63147C13.5528 0.789509 12.4472 0.789509 12.0031 1.63147L8.87494 7.56104C8.65552 7.97696 8.27626 8.26081 7.84398 8.33261L1.98159 9.30652C0.996965 9.47009 0.651583 10.8375 1.41841 11.5362L5.78563 15.5159C6.18989 15.8843 6.37997 16.4654 6.28177 17.0326L5.13937 23.6314C4.95877 24.6745 5.95436 25.4849 6.80859 24.9903L12.3287 21.7932C12.7489 21.5499 13.251 21.5499 13.6713 21.7932L19.1914 24.9903C20.0456 25.4849 21.0412 24.6745 20.8606 23.6314L19.7183 17.0326C19.6201 16.4654 19.8101 15.8843 20.2143 15.5159L24.5816 11.5362C25.3484 10.8375 25.0031 9.47009 24.0184 9.30652L18.1561 8.33261C17.7237 8.26081 17.3445 7.97696 17.1251 7.56104L13.9969 1.63147Z"
        stroke="black" stroke-width="2"/>
</svg>
