<svg width="24" height="25" viewBox="0 0 24 25" fill="none" xmlns="http://www.w3.org/2000/svg">
<path d="M12.1104 1.10084L12.1104 1.10092L15.2386 7.09305L15.2386 7.09309C15.5894 7.7648 16.221 8.26699 16.9905 8.39616C16.9905 8.39617 16.9905 8.39617 16.9905 8.39617L22.8529 9.38035L23.0184 8.39415L22.8529 9.38035C22.8707 9.38333 22.9475 9.40388 22.9866 9.56041C23.0258 9.7169 22.9777 9.8441 22.9042 9.91177L18.5369 13.9334L18.5369 13.9335C17.8663 14.5511 17.5812 15.4865 17.7326 16.3706C17.7326 16.3706 17.7326 16.3706 17.7326 16.3706L18.875 23.039L18.875 23.039C18.9042 23.2096 18.8367 23.3196 18.7787 23.3672C18.7498 23.391 18.7311 23.3937 18.7296 23.3938L18.7296 23.3938C18.7289 23.3939 18.7283 23.394 18.7263 23.3935C18.7244 23.3931 18.7145 23.3908 18.6966 23.3803C18.6965 23.3803 18.6965 23.3803 18.6965 23.3803L13.1764 20.1495L13.1762 20.1494C12.4441 19.7211 11.5558 19.721 10.8237 20.1495L10.8236 20.1495L5.30353 23.3803C5.28553 23.3908 5.27566 23.3931 5.27372 23.3935C5.27297 23.3937 5.27242 23.3938 5.27198 23.3938C5.2712 23.3939 5.2708 23.3939 5.27034 23.3938C5.2689 23.3936 5.25013 23.391 5.22122 23.3672C5.16328 23.3196 5.09579 23.2096 5.12501 23.039L4.13937 22.8701L5.12501 23.039L6.26741 16.3706C6.41888 15.4865 6.13369 14.551 5.46306 13.9334L5.46304 13.9334L1.09581 9.91177C1.02233 9.84411 0.974244 9.71693 1.01336 9.56044C1.05249 9.40389 1.12937 9.38333 1.14715 9.38035L7.00952 8.39617C7.00952 8.39617 7.00953 8.39616 7.00954 8.39616C7.77899 8.267 8.4107 7.76484 8.76141 7.09304L11.8896 1.10092L11.8897 1.10084C11.9204 1.04188 11.9501 1.01953 11.9632 1.01147C11.978 1.0024 11.9903 1 12 1C12.0097 1 12.022 1.0024 12.0368 1.01147C12.0499 1.01953 12.0796 1.04188 12.1104 1.10084Z" stroke="black" stroke-width="2"/>
</svg>
